<svg width="14" height="14" viewBox="0 0 14 14" fill="none" xmlns="http://www.w3.org/2000/svg">
<path fill-rule="evenodd" clip-rule="evenodd" d="M13 7C13 10.3137 10.3137 13 7 13C3.68629 13 1 10.3137 1 7C1 3.68629 3.68629 1 7 1C10.3137 1 13 3.68629 13 7ZM14 7C14 10.866 10.866 14 7 14C3.13401 14 0 10.866 0 7C0 3.13401 3.13401 0 7 0C10.866 0 14 3.13401 14 7ZM6.34633 6.75635V8.49095H7.12053V7.41295C7.49946 7.39335 7.83266 7.29861 8.12013 7.12875C8.40759 6.95888 8.62973 6.72695 8.78653 6.43295C8.94986 6.13241 9.03153 5.79268 9.03153 5.41375C9.03153 4.98908 8.94006 4.62321 8.75713 4.31615C8.57419 4.00908 8.31613 3.77061 7.98293 3.60075C7.65626 3.43088 7.27079 3.34595 6.82653 3.34595H5.61133V4.07115H6.82653C7.26426 4.07115 7.61053 4.19528 7.86533 4.44355C8.12013 4.68528 8.24753 5.00868 8.24753 5.41375C8.24753 5.81881 8.12013 6.14548 7.86533 6.39375C7.61053 6.63548 7.26753 6.75635 6.83633 6.75635H6.34633ZM6.18953 10.3921C6.30059 10.4967 6.44106 10.5489 6.61093 10.5489H6.83633C7.0062 10.5489 7.14339 10.4934 7.24793 10.3823C7.35899 10.2713 7.41453 10.1341 7.41453 9.97075C7.41453 9.80088 7.36226 9.66368 7.25773 9.55915C7.15973 9.45461 7.01926 9.40235 6.83633 9.40235H6.61093C6.44106 9.40235 6.30059 9.45788 6.18953 9.56895C6.08499 9.67348 6.03273 9.80741 6.03273 9.97075C6.03273 10.1406 6.08499 10.2811 6.18953 10.3921Z" fill="white" fill-opacity="0.2"/>
</svg>
